<?xml version="1.0" standalone="no"?>
<!DOCTYPE svg PUBLIC "-//W3C//DTD SVG 20010904//EN"
 "http://www.w3.org/TR/2001/REC-SVG-20010904/DTD/svg10.dtd">
<svg version="1.0" xmlns="http://www.w3.org/2000/svg"
 width="65.000000pt" height="60.000000pt" viewBox="0 0 65.000000 60.000000"
 preserveAspectRatio="xMidYMid meet">

<g transform="translate(0.000000,60.000000) scale(0.100000,-0.100000)"
fill="#000000" stroke="none">
<path d="M377 541 c-24 -28 -47 -119 -47 -183 0 -17 -8 -28 -25 -36 -35 -16
-33 -17 -40 26 -12 68 -38 135 -61 159 -18 18 -34 23 -76 23 -29 0 -60 -5 -68
-11 -11 -8 -6 -9 23 -5 83 11 122 -30 147 -158 10 -48 10 -60 -2 -66 -92 -53
-118 -84 -118 -142 0 -45 34 -78 81 -78 62 0 79 29 79 133 0 74 1 75 29 85
l28 10 7 -85 c6 -87 24 -136 51 -147 30 -11 140 -5 165 9 23 13 21 14 -46 15
-91 0 -118 19 -133 91 -17 77 -14 129 7 136 51 17 130 57 151 76 34 32 43 63
31 109 -13 45 -52 68 -119 68 -31 0 -44 -6 -64 -29z m113 -6 c28 -15 50 -42
50 -64 0 -22 -53 -70 -105 -95 -31 -14 -60 -26 -65 -26 -16 0 -12 87 5 127 31
73 59 87 115 58z m-262 -392 c-22 -45 -44 -52 -74 -22 -25 26 -25 27 -10 57 9
17 33 43 54 57 l37 25 3 -45 c2 -25 -3 -57 -10 -72z"/>
</g>
</svg>
